<?xml version="1.0" encoding="utf-8"?>
<!-- Generator: Adobe Illustrator 23.0.3, SVG Export Plug-In . SVG Version: 6.00 Build 0)  -->
<svg version="1.1" id="Layer_1" xmlns="http://www.w3.org/2000/svg" xmlns:xlink="http://www.w3.org/1999/xlink" x="0px" y="0px"
	 viewBox="0 0 1906 382" style="enable-background:new 0 0 1906 382;" xml:space="preserve">
<g>
	<path d="M165,328.4v16l-122,0l85.6-287H42.3l0.1-18.5h109.4L65,328.4L165,328.4z M183.5,14.9L19,14.8v65.1l78.3,0L10.9,367.8h178.9
		v-63H97.2L183.5,14.9z"/>
	<path d="M373,239.4h11.7l0,73.4c0,0-27.8-12.6-26.8-130.6c0.9-118,37.2-119.3,43.7-120.2c6.2-0.9,19.7-1.5,31.4,5.5l0-44.8
		c0,0-9.9-11.4-39.8-11.6c-54.6-0.3-87,71.6-87.6,187.5c0,0-6.1,163.9,85.1,171.7h42.4V189.1H373V239.4z"/>
	<path d="M605.6,255.9L615,96.4l9,159.4L605.6,255.9z M584,14.9l-39,355.5h51.8l4.5-63h23.9l4.5,63h51.6L643.4,14.9H584z"/>
	<polygon points="849.4,14.9 797.2,14.9 797.2,370.2 876.2,370.2 876.2,319.4 849.3,319.4 	"/>
	<polygon points="1186.7,370.2 1273.8,370.2 1273.8,319.4 1239.9,319.4 1239.9,220.4 1273.8,220.4 1273.8,170.4 1239.7,170.4 
		1239.7,63.6 1273.8,63.6 1273.8,14.9 1186.7,14.9 	"/>
	<path d="M1439.1,158l0-85.8c0,0,22.5-2,22.5,41.2C1461.6,150.7,1443.3,157,1439.1,158 M1509.7,104.1c0-92.9-70.7-89.2-70.7-89.2
		h-52.3v355.3h52.3l-0.1-147.8c7.6,3.3,17.7,10.7,22.2,28.3c11.3,43.9,10.1,119.4,10.1,119.4h52c-1.9-73.9-9.2-124.2-20-151.9
		c-9-23-21.8-29.5-21.8-29.5C1507.7,168.6,1509.7,125.9,1509.7,104.1"/>
	<polygon points="1639.1,370.2 1692.2,370.2 1692.2,14.9 1639,14.9 	"/>
	<polygon points="1044.2,15 992,15 992.1,370.4 1071,370.4 1071,319.5 1044.1,319.5 	"/>
	<polygon points="1895,63.7 1895,15 1807.9,15 1807.9,370.4 1895,370.4 1895,319.5 1861.1,319.5 1861.1,220.5 1895,220.5 
		1895,170.5 1860.9,170.5 1860.9,63.9 	"/>
</g>
</svg>
