<?xml version="1.0" encoding="utf-8"?>
<!-- Generator: Adobe Illustrator 23.0.3, SVG Export Plug-In . SVG Version: 6.00 Build 0)  -->
<svg version="1.1" id="Layer_1" xmlns="http://www.w3.org/2000/svg" xmlns:xlink="http://www.w3.org/1999/xlink" x="0px" y="0px"
	 viewBox="0 0 412 484" style="enable-background:new 0 0 412 484;" xml:space="preserve">
<g>
	<path d="M202.6,69.7c71.2,0,129.6,56,129.6,125.1c0,89.8-51.2,154.3-124.8,205.8c-3.2,3.1-8,2.3-10.4,0
		C123.5,349.1,72.3,284.7,72.3,194.8C72.3,125.7,130.7,69.7,202.6,69.7z M202.6,87.3c-62.4,0-112,47.6-112,107.5
		c0,82.1,45.6,140.5,112,188.1c65.6-47.6,111.2-105.9,111.2-188.1C313.8,134.9,264.2,87.3,202.6,87.3z"/>
	<path d="M202.6,129.6c32.8,0,60,26.1,60,57.6c0,32.2-27.2,57.6-60,57.6c-33.6,0-60-25.3-60-57.6
		C142.7,155.7,169.1,129.6,202.6,129.6z M202.6,147.2c-23.2,0-42.4,18.4-42.4,39.9c0,22.3,19.2,40.7,42.4,40.7
		c22.4,0,41.6-18.4,41.6-40.7C244.2,165.7,225,147.2,202.6,147.2z"/>
</g>
</svg>
