<?xml version="1.0" encoding="utf-8"?>
<!-- Generator: Adobe Illustrator 23.0.3, SVG Export Plug-In . SVG Version: 6.00 Build 0)  -->
<svg version="1.1" id="Layer_1" xmlns="http://www.w3.org/2000/svg" xmlns:xlink="http://www.w3.org/1999/xlink" x="0px" y="0px"
	 viewBox="0 0 348 377.6" style="enable-background:new 0 0 348 377.6;" xml:space="preserve">
<title>Profile 3.2</title>
<desc>Created with Sketch.</desc>
<g>
	<path d="M322.6,334.6c0,9.6-7.8,17.5-17.4,17.5H42.7c-9.6,0-17.4-7.9-17.4-17.5c0-82.1,66.6-148.7,148.7-148.7
		S322.6,252.5,322.6,334.6z M174,203.4c-72.4,0-131.2,58.7-131.2,131.2c0,0,262.4,0,262.4,0C305.2,262.2,246.4,203.4,174,203.4z
		 M174,194.7c-48.3,0-87.4-39.2-87.4-87.4s39.2-87.4,87.4-87.4s87.4,39.2,87.4,87.4S222.3,194.7,174,194.7z M174,177.2
		c38.6,0,70-31.3,70-70s-31.3-70-70-70s-70,31.3-70,70S135.3,177.2,174,177.2z"/>
</g>
</svg>
