<?xml version="1.0" encoding="utf-8"?>
<!-- Generator: Adobe Illustrator 24.0.3, SVG Export Plug-In . SVG Version: 6.00 Build 0)  -->
<svg version="1.1" id="Layer_1" xmlns="http://www.w3.org/2000/svg" xmlns:xlink="http://www.w3.org/1999/xlink" x="0px" y="0px"
	 viewBox="0 0 388.6 348.6" style="enable-background:new 0 0 388.6 348.6;" xml:space="preserve">
<style type="text/css">
	.st0{fill:#FFFFFF;}
</style>
<path class="st0" d="M105.4,222.8L66.1,67.6c-4-15-16-24-31-24h-19c-11,0-11-17,0-17h19c22,0,39.3,0.2,51,48.6h265.2c5,0,9,6,8,11
	l-36.2,108.4c-6,20-25,33-46,33h-165C106.9,227.6,105.4,222.8,105.4,222.8z M90.1,92.2l28.4,116c0,0,0.3,1.3,1.2,2.1
	c0.5,0.4,1.9,0.3,1.9,0.3h155.5c14,0,25-8,30-22l32.2-96.4C339.3,92.2,90.1,92.2,90.1,92.2z"/>
<path class="st0" d="M156,247.8c20.3,0,37.9,17.6,37.9,37.9c0,20.3-17.6,37.9-37.9,37.9s-37.9-17.6-37.9-37.9
	C118.1,265.4,135.7,247.8,156,247.8z M156,266.3c-10.6,0-19.4,8.8-19.4,19.4s8.8,19.4,19.4,19.4c10.6,0,19.4-8.8,19.4-19.4
	C175.4,275.1,166.6,266.3,156,266.3z"/>
<path class="st0" d="M269.9,248.9c20.3,0,37.9,17.6,37.9,37.9s-17.6,37.9-37.9,37.9S232,307.1,232,286.8
	C232,266.6,249.6,248.9,269.9,248.9z M269.9,267.5c-10.6,0-19.4,8.8-19.4,19.4s8.8,19.4,19.4,19.4s19.4-8.8,19.4-19.4
	C289.2,276.3,280.4,267.5,269.9,267.5z"/>
</svg>
